<svg width="44" height="40" viewBox="0 0 44 40" fill="none" xmlns="http://www.w3.org/2000/svg">
<g clip-path="url(#clip0_381_3)">
<path d="M43.3517 9.11458C44.0435 10.1042 44.1991 11.224 43.8186 12.474L36.6842 36.0677C36.3556 37.1788 35.694 38.112 34.6995 38.8672C33.705 39.6224 32.6457 40 31.5215 40H7.57571C6.24395 40 4.95975 39.5356 3.72312 38.6068C2.48648 37.678 1.62603 36.5365 1.14175 35.1823C0.726657 34.0191 0.709361 32.9167 1.08986 31.875C1.08986 31.8056 1.11581 31.5712 1.16769 31.1719C1.21958 30.7726 1.25417 30.4514 1.27147 30.2083C1.28876 30.0694 1.26282 29.8828 1.19364 29.6484C1.12446 29.4141 1.09851 29.2448 1.11581 29.1406C1.1504 28.9497 1.21958 28.7674 1.32335 28.5937C1.42713 28.4201 1.56982 28.2161 1.75142 27.9818C1.93302 27.7474 2.07571 27.5434 2.17949 27.3698C2.57729 26.7101 2.96644 25.9158 3.34694 24.987C3.72744 24.0582 3.98688 23.2639 4.12524 22.6042C4.17713 22.4306 4.18145 22.1701 4.13821 21.8229C4.09497 21.4757 4.09065 21.2326 4.12524 21.0937C4.17713 20.9028 4.32414 20.6597 4.56628 20.3646C4.80842 20.0694 4.95543 19.8698 5.00732 19.7656C5.37052 19.1406 5.73373 18.342 6.09694 17.3698C6.46015 16.3976 6.67634 15.6163 6.74552 15.026C6.76282 14.8698 6.7412 14.592 6.68067 14.1927C6.62013 13.7934 6.62446 13.5503 6.69364 13.4635C6.76282 13.2378 6.95307 12.9731 7.26439 12.6693C7.57571 12.3655 7.76596 12.1701 7.83515 12.0833C8.16376 11.6319 8.53129 10.8984 8.93774 9.88281C9.34419 8.86719 9.582 8.02951 9.65118 7.36979C9.66848 7.2309 9.64254 7.00955 9.57335 6.70573C9.50417 6.40191 9.48688 6.17187 9.52147 6.01562C9.55606 5.87674 9.63389 5.72049 9.75496 5.54687C9.87603 5.37326 10.0317 5.17361 10.2219 4.94792C10.4122 4.72222 10.5592 4.53993 10.663 4.40104C10.8013 4.19271 10.944 3.92795 11.091 3.60677C11.2381 3.28559 11.3678 2.98177 11.4802 2.69531C11.5926 2.40885 11.731 2.09635 11.8953 1.75781C12.0596 1.41927 12.2282 1.14149 12.4012 0.924479C12.5741 0.707465 12.8033 0.503472 13.0887 0.3125C13.3741 0.121528 13.6854 0.0217014 14.0226 0.0130208C14.3599 0.00434028 14.7707 0.0520833 15.255 0.15625L15.229 0.234375C15.8862 0.078125 16.3273 0 16.5521 0H36.2951C37.5749 0 38.5608 0.486111 39.2526 1.45833C39.9444 2.43056 40.1001 3.55903 39.7196 4.84375L32.6111 28.4375C31.9884 30.5035 31.3701 31.8359 30.7561 32.4349C30.1421 33.0339 29.0309 33.3333 27.4224 33.3333H4.8776C4.41062 33.3333 4.082 33.4635 3.89175 33.724C3.7015 34.0017 3.69285 34.375 3.86581 34.8437C4.2809 36.059 5.52618 36.6667 7.60166 36.6667H31.5474C32.049 36.6667 32.5333 36.5321 33.0002 36.263C33.4672 35.9939 33.7699 35.6337 33.9083 35.1823L41.6913 9.47917C41.8123 9.09722 41.8556 8.60243 41.821 7.99479C42.4782 8.25521 42.9884 8.62847 43.3517 9.11458ZM15.7479 9.16667C15.6787 9.39236 15.696 9.58767 15.7998 9.7526C15.9035 9.91753 16.0765 10 16.3186 10H32.0922C32.3171 10 32.5376 9.91753 32.7538 9.7526C32.97 9.58767 33.1127 9.39236 33.1818 9.16667L33.7267 7.5C33.7958 7.27431 33.7785 7.07899 33.6748 6.91406C33.571 6.74913 33.398 6.66667 33.1559 6.66667H17.3823C17.1575 6.66667 16.937 6.74913 16.7208 6.91406C16.5046 7.07899 16.3619 7.27431 16.2927 7.5L15.7479 9.16667ZM13.5946 15.8333C13.5254 16.059 13.5427 16.2543 13.6465 16.4193C13.7502 16.5842 13.9232 16.6667 14.1653 16.6667H29.9389C30.1638 16.6667 30.3843 16.5842 30.6005 16.4193C30.8167 16.2543 30.9594 16.059 31.0285 15.8333L31.5734 14.1667C31.6425 13.941 31.6252 13.7457 31.5215 13.5807C31.4177 13.4158 31.2447 13.3333 31.0026 13.3333H15.229C15.0042 13.3333 14.7837 13.4158 14.5675 13.5807C14.3513 13.7457 14.2086 13.941 14.1394 14.1667L13.5946 15.8333Z" fill="#FF9D00"/>
</g>
<defs>
<clipPath id="clip0_381_3">
<rect width="44" height="40" fill="white"/>
</clipPath>
</defs>
</svg>
